# xmcd
#
# Track frame offsets:
#	150
#	11748
#	20211
#	28929
#	37588
#	46433
#	58070
#	69633
#	82191
#
# Disc length: 1238 seconds
#
# Revision: 1
# Processed by: cddbd v1.5.2PL0 Copyright (c) Steve Scherf et al.
# Submitted via: EasyCDDAExtractor 10.0.2.1
#
DISCID=7904d409
DTITLE=Merle Haggard and Bonnie Owens - That Makes Two of Us
DYEAR=1996
DGENRE=Country
TTITLE0=That Makes Two Of us
TTITLE1=I'll Take A Chance
TTITLE2=I Wanna Live Again
TTITLE3=Forever And Ever
TTITLE4=Wait A Little Longer, Please Jesus
TTITLE5=Just Betwee3n The Two Of Us
TTITLE6=Stranger In My Arms
TTITLE7=Too Used To Being With You
TTITLE8=So Much For Me, So Much For You
EXTD=
EXTT0=
EXTT1=
EXTT2=
EXTT3=
EXTT4=
EXTT5=
EXTT6=
EXTT7=
EXTT8=
PLAYORDER=
